<svg role="img" aria-label="Auth Wrapper Illustrations" xmlns="http://www.w3.org/2000/svg" class="css-8rz6uj"><path d="M16.449 197.564c21.913 24.807 49.649 34.446 63.327 64.586 9.377 20.661 4.978 45.121 11.905 66.726 9.495 29.613 40.691 49.506 71.789 49.613 31.097.106 60.74-17.513 79.193-42.543 6.052-8.209 11.297-17.439 19.78-23.099 12.151-8.105 27.911-7.063 42.459-8.36 35.87-3.196 69.862-23.339 89.891-53.267 0 0 51.959-61.308 15.177-149.016-10.692-25.494-28.023-48.907-51.922-62.8-23.898-13.894-65.486-14.224-90.093-1.627-26.162 13.393-43.555 42.748-72.231 49.196-16.621 3.737-33.781-1.12-50.519-4.296-23.479-4.457-47.413-7.226-71.12-4.215-27.904 3.543-56.05 17.535-69.065 48.992C.46 138.47-1.071 150.556.746 162.34c1.628 10.567 5.746 23.953 15.703 35.224Z" fill="#F4F9FF"></path><path d="M232.08 16.415c-6.031-7.572-15.428-11.706-24.825-14.035-12.966-3.213-26.908-3.46-39.485 1.04-12.577 4.498-23.608 14.09-28.246 26.617-4.637 12.527-2.082 27.842 7.541 37.107 5.392 5.191 12.964 7.983 20.409 7.963 4.415.47 8.925-.026 13.075-1.624 9.232-3.557 16.018-11.63 24.871-16.047 9.623-4.8 21.99-5.566 28.502-14.122 5.863-7.704 4.189-19.327-1.842-26.9ZM58.607 284.764c-1.005-2.059-1.94-4.143-2.552-6.348-1.955-7.062-.534-15.115-4.326-21.385-4.762-7.875-16.49-9.312-24.47-4.728S14.717 265.855 12.77 274.85c-1.199 5.539-1.547 11.438.35 16.777 2.207 6.21 7.226 11.035 12.7 14.704 6.085 4.08 13.192 7.074 20.515 6.825 3.26-.11 6.547-.975 9.447-2.49 2.287-.993 4.317-2.528 5.714-4.519 1.015-1.203 1.871-2.538 2.498-4.01 2.6-6.121.254-14.176-5.388-17.373Z" fill="#F4F9FF"></path><path d="M347.137 284.24H118.514a3.913 3.913 0 0 1-3.901-3.901V133.646a3.913 3.913 0 0 1 3.901-3.901h228.623a3.913 3.913 0 0 1 3.901 3.901v146.693a3.913 3.913 0 0 1-3.901 3.901Z" fill="#0367F2"></path><path d="M345.186 140.98H120.465v128.277h224.721V140.98ZM234.239 134.902a1.413 1.413 0 1 1-2.826-.002 1.413 1.413 0 0 1 2.826.002ZM382.859 334.649l-29.041-46.219a8.956 8.956 0 0 0-7.584-4.191H119.417a8.956 8.956 0 0 0-7.584 4.191l-29.04 46.219a6.228 6.228 0 0 0-.857 4.366h301.779a6.232 6.232 0 0 0-.856-4.366Z" fill="#B1D0FB"></path><path d="M81.936 339.016c.053.31.12.617.221.92l.458 1.373a6.231 6.231 0 0 0 5.911 4.261h288.597a6.233 6.233 0 0 0 5.912-4.261l.457-1.373a6.25 6.25 0 0 0 .222-.92H81.936ZM130.344 307.048l1.415-3.111h-6.998l-1.498 3.111h7.081ZM142.672 298.192l.694-1.623.636-1.489h-6.771l-1.415 3.112h6.856ZM133.205 303.937l-1.414 3.111h7.096l1.329-3.111h-7.011ZM132.357 302.62l1.414-3.112h-6.878l-1.498 3.112h6.962ZM274.833 295.08l.783 3.112h6.017l-.866-3.112h-5.934ZM166.865 303.937l-.95 3.111h7.154l.909-3.111h-7.113ZM158.498 303.937l-1.119 3.111h7.159l.951-3.111h-6.991ZM150.093 303.937l-1.246 3.111h7.132l1.12-3.111h-7.006ZM141.648 303.937l-1.329 3.111h7.109l1.246-3.111h-7.026ZM282.135 295.08l.865 3.112h5.623l-.911-3.112h-5.577ZM191.062 299.508l-.783 3.112h5.658l.699-3.112h-5.574ZM252.446 295.08l.529 3.112h6.529l-.614-3.112h-6.444ZM190.035 298.192l.783-3.112h-5.934l-.867 3.112h6.018ZM182.65 298.192l.867-3.112h-5.578l-.91 3.112h5.621ZM196.932 298.192l.698-3.112h-5.455l-.781 3.112h5.538ZM289.085 295.08l.909 3.112h7.035l-.952-3.112h-6.992ZM161.685 295.08l-1.12 3.112h6.68l.492-1.605.459-1.507h-6.511ZM159.166 298.192l1.119-3.112h-6.647l-1.244 3.112h6.772ZM145.435 295.08l-1.331 3.112h6.871l.648-1.619.597-1.493h-6.785ZM268.021 295.08l.698 3.112h5.539l-.783-3.112h-5.454ZM260.232 295.08l.614 3.112h6.523l-.698-3.112h-6.439ZM175.657 298.192l.91-3.112h-6.994l-.951 3.112h7.035ZM183.884 293.764l.808-2.897h-5.522l-.848 2.897h5.562ZM176.951 293.764l.847-2.897h-6.935l-.887 2.897h6.975ZM244.757 295.08l.363 3.112h6.52l-.53-3.112h-6.353ZM205.678 293.764l.573-2.897h-6.324l-.65 2.897h6.401ZM197.926 293.764l.651-2.897h-5.341l-.728 2.897h5.418ZM191.15 293.764l.727-2.897h-5.818l-.808 2.897h5.899ZM321.649 295.08l1.33 3.112h6.856l-1.415-3.112h-6.771ZM144.566 293.764l1.238-2.897h-6.659l-1.316 2.897h6.737ZM152.748 293.764l1.159-2.897h-6.671l-1.239 2.897h6.751ZM168.599 293.764l.886-2.897h-6.284l-1.042 2.897h6.44ZM329.867 295.08l1.415 3.112h6.841l-1.499-3.112h-6.757ZM160.759 293.764l1.042-2.897h-6.475l-1.159 2.897h6.592ZM297.454 295.08l.952 3.112h6.68l-1.119-3.112h-6.513ZM205.011 303.937l-.614 3.111h6.769l.53-3.111h-6.685ZM175.351 303.937l-.909 3.111h5.74l.867-3.111h-5.698ZM196.992 303.937l-.699 3.111h6.762l.614-3.111h-6.677ZM182.417 303.937l-.867 3.111h6.257l.782-3.111h-6.172ZM189.948 303.937l-.783 3.111h5.778l.698-3.111h-5.693ZM214.541 295.08l-.53 3.112h6.52l.362-3.112h-6.352ZM213.43 293.764l.493-2.897h-6.33l-.572 2.897h6.409ZM205.886 299.508l-.615 3.112h6.649l.531-3.112h-6.565ZM313.43 295.08l1.246 3.112h6.871l-1.33-3.112h-6.787ZM220.016 302.62l.362-3.112h-6.592l-.53 3.112h6.76ZM305.365 295.08l1.121 3.112h6.772l-1.246-3.112h-6.647ZM134.37 298.192l1.414-3.112h-6.758l-1.499 3.112h6.843ZM284.102 307.048l-.867-3.111h-6.173l.781 3.111h6.259ZM183.65 299.508l-.866 3.112h6.137l.783-3.112h-6.054ZM295.674 293.764l-.885-2.897h-6.935l.845 2.897h6.975ZM311.484 293.764l-1.159-2.897h-6.476l1.043 2.897h6.592ZM303.493 293.764l-1.043-2.897h-6.283l.885 2.897h6.441ZM266.375 293.764l-.65-2.897h-6.324l.571 2.897h6.403ZM258.631 293.764l-.572-2.897h-6.331l.493 2.897h6.41ZM319.654 293.764l-1.238-2.897h-6.672l1.16 2.897h6.75ZM280.4 293.764l-.807-2.897h-5.82l.729 2.897h5.898ZM273.143 293.764l-.728-2.897h-5.341l.65 2.897h5.419ZM276.486 307.048l-.783-3.111h-5.693l.698 3.111h5.778ZM325.333 307.048l-1.331-3.111h-7.024l1.246 3.111h7.109ZM308.274 307.048l-1.121-3.111h-6.991l.951 3.111h7.161ZM342.388 307.048l-1.5-3.111h-6.995l1.414 3.111h7.081ZM333.861 307.048l-1.414-3.111h-7.012l1.329 3.111h7.097ZM316.804 307.048l-1.246-3.111h-7.005l1.119 3.111h7.132ZM269.358 307.048l-.697-3.111h-6.679l.615 3.111h6.761ZM327.822 293.764l-1.316-2.897h-6.659l1.239 2.897h6.736ZM339.585 298.192h6.313l-1.759-3.112h-6.053l1.499 3.112ZM291.211 307.048l-.911-3.111h-5.698l.867 3.111h5.742ZM335.991 293.764l-1.397-2.897h-6.642l1.316 2.897h6.723ZM299.736 307.048l-.951-3.111h-7.112l.909 3.111h7.154ZM343.396 293.764l-1.638-2.897h-5.702l1.396 2.897h5.944ZM287.328 293.764l-.845-2.897h-5.523l.807 2.897h5.561ZM244.824 307.048l-.361-3.111h-6.827l.127 3.111h7.061ZM143.542 299.508l-.694 1.624-.636 1.488h6.99l1.245-3.112h-6.905ZM252.395 302.62l-.53-3.112h-6.593l.363 3.112h6.76ZM140.779 302.62l1.331-3.112h-6.893l-.739 1.627-.674 1.485h6.975ZM198.981 295.08l-.699 3.112h6.522l.614-3.112h-6.437ZM206.761 295.08l-.615 3.112h6.529l.53-3.112h-6.444ZM168.219 299.508l-.951 3.112h7.095l.909-3.112h-7.053ZM151.866 299.508l-1.246 3.112h6.952l1.12-3.112h-6.826ZM176.644 299.508l-.909 3.112h5.681l.867-3.112h-5.639ZM237.459 299.508l.126 3.112h6.724l-.362-3.112h-6.488ZM160.092 299.508l-1.12 3.112h6.919l.952-3.112h-6.751ZM243.279 293.764l-.338-2.897h-5.83l.116 2.897h6.052ZM261.255 307.048l-.615-3.111h-6.684l.529 3.111h6.77ZM229.859 290.867l-.118 2.897h6.168l-.117-2.897h-5.933ZM229.688 295.08l-.125 3.112h6.524l-.125-3.112h-6.274ZM243.794 298.192l-.363-3.112h-6.151l.125 3.112h6.389ZM250.886 293.764l-.494-2.897h-6.125l.338 2.897h6.281ZM229.51 299.508l-.126 3.112h6.882l-.125-3.112h-6.631ZM229.332 303.937l-.126 3.111h7.238l-.125-3.111h-6.987ZM228.424 293.764l.117-2.897h-5.832l-.337 2.897h6.052ZM214.765 293.764h6.281l.337-2.897h-6.123l-.495 2.897ZM260.38 302.62l-.616-3.112H253.2l.531 3.112h6.649ZM197.986 299.508l-.698 3.112h6.641l.615-3.112h-6.558ZM114.003 308.364l-1.539 2.722h7.393l1.311-2.722h-7.165ZM289.916 302.62l-.909-3.112h-5.64l.869 3.112h5.68ZM285.836 308.364l.759 2.722h5.796l-.796-2.722h-5.759ZM275.372 302.62l-.783-3.112h-5.573l.697 3.112h5.659ZM227.889 307.048l.125-3.111h-6.825l-.362 3.111h7.062ZM310.146 308.364l.979 2.722h7.295l-1.088-2.722h-7.186ZM331.849 302.62l-1.415-3.112h-6.893l1.33 3.112h6.978ZM318.75 308.364l1.089 2.722h7.22l-1.164-2.722h-7.145ZM213.032 303.937l-.531 3.111h7l.362-3.111h-6.831ZM116.504 303.937l-1.757 3.111h7.055l1.498-3.111h-6.796ZM246.302 308.364l.318 2.722h7.218l-.464-2.722h-7.072ZM139.756 308.364l-1.163 2.722h7.219l1.089-2.722h-7.145ZM227.836 308.364h-7.162l-.317 2.722h7.369l.11-2.722ZM323.439 302.62l-1.328-3.112h-6.906l1.245 3.112h6.989ZM122.629 308.364l-1.311 2.722h7.191l1.237-2.722h-7.117ZM261.107 299.508l.615 3.112h6.642l-.698-3.112h-6.559ZM292.966 308.364l.796 2.722h7.209l-.833-2.722h-7.172ZM262.857 308.364l.537 2.722h6.871l-.61-2.722h-6.798ZM298.382 302.62l-.951-3.112h-7.052l.908 3.112h7.095ZM306.68 302.62l-1.121-3.112h-6.75l.951 3.112h6.92ZM254.71 308.364l.463 2.722h6.878l-.536-2.722h-6.805ZM301.516 308.364l.833 2.722h7.377l-.979-2.722h-7.231ZM121.511 295.08l-1.759 3.112h6.314l1.499-3.112h-6.054ZM335.905 308.364l1.238 2.722h7.19l-1.312-2.722h-7.116ZM123.892 290.867l-1.637 2.897h5.944l1.395-2.897h-5.702ZM315.031 302.62l-1.245-3.112h-6.828l1.121 3.112h6.952ZM210.478 311.086l.463-2.722H148.32l-1.091 2.722h63.249ZM271.005 308.364l.61 2.722h5.887l-.685-2.722h-5.812ZM221.857 298.192h6.389l.125-3.112h-6.152l-.362 3.112ZM349.146 303.937h-6.796l3.444 7.149h7.393l-4.041-7.149ZM341.717 302.62h6.685l-1.76-3.112h-6.423l1.498 3.112ZM340.255 302.62l-1.498-3.112h-6.877l1.414 3.112h6.961ZM219.031 311.086l.317-2.722h-7.071l-.464 2.722h7.218ZM229.154 308.364l-.11 2.722h16.251l-.318-2.722h-15.823ZM327.328 308.364l1.163 2.722h7.206l-1.238-2.722h-7.131ZM282.869 302.62l-.869-3.112h-6.052l.782 3.112h6.139ZM278.175 308.364l.686 2.722h6.367l-.759-2.722h-6.294ZM119.007 299.508l-1.758 3.112h6.685l1.499-3.112h-6.426ZM136.382 293.764l1.318-2.897h-6.644l-1.395 2.897h6.721ZM131.192 308.364l-1.237 2.722h7.205l1.164-2.722h-7.132ZM228.067 302.62l.126-3.112h-6.489l-.362 3.112h6.725ZM252.62 303.937h-6.831l.361 3.111h7l-.53-3.111ZM274.08 334.275h-82.508c-.351 0-.672-.162-.88-.444a1.083 1.083 0 0 1-.165-.972l5.245-17.047a1.088 1.088 0 0 1 1.045-.771h72.018c.483 0 .903.31 1.046.771l5.245 17.047c.104.336.043.69-.165.972-.21.282-.53.444-.881.444Zm-77.264-18.259a.118.118 0 0 0-.113.084l-5.245 17.047a.113.113 0 0 0 .018.105.113.113 0 0 0 .095.048h82.509a.114.114 0 0 0 .095-.048.116.116 0 0 0 .018-.105l-5.245-17.048a.12.12 0 0 0-.114-.083h-72.018Z" fill="#0367F2"></path><path d="m272.893 160.637-89.625 14.136 86.174 43.116 89.255-13.274-85.804-43.978Z" fill="#023985"></path><path d="M183.268 174.773v2.051l86.239 45.068 89.19-15.314v-1.963l-89.255 13.274-86.174-43.116ZM216.603 223.281l-1.373 9.112s36.803 29.549 88.696 15.02l.795-7.119c-45.87 7.674-74.744-7.195-88.118-17.013Z" fill="#023985"></path><path d="M325.87 271.26c-4.802-3.809-8.205-9.428-9.825-15.34-.12-.438-.705-.279-.773.096-.109-.145-.329-.166-.505-.074-.084-.305-.579-.444-.769-.076-3.294 6.385-.75 13.596 1.454 19.912.173.496.722.229.548-.269-1.724-4.943-3.57-10.478-2.521-15.685-.585 6.584 1.609 13.327 5.628 18.552.29.376.741-.076.449-.456-3.648-4.743-5.534-10.763-5.339-16.741.112 2.355.477 4.703 1.231 6.924 1.154 3.402 3.083 6.65 5.015 9.663.284.443.732-.013.448-.456-1.856-2.896-3.457-6.007-4.616-9.258-.496-1.393-.823-2.852-1.031-4.333 1.11 4.789 3.423 9.291 6.747 12.946.35.385.813.043.459-.346-3.643-4.005-5.833-9.133-6.736-14.423 1.336 4.955 3.803 9.641 7.06 13.666.329.407.673-.035.34-.446-3.18-3.929-5.282-8.524-6.595-13.358 1.769 4.987 4.064 9.797 8.119 13.343.397.347.831-.055.435-.402-2.785-2.436-4.62-5.726-6.117-9.025a42.06 42.06 0 0 0 5.842 8.018c.358.385.66-.228.306-.609-1.993-2.144-3.522-4.518-5.003-7.028a29.55 29.55 0 0 0 5.307 5.498c.41.327.856.035.442-.293Z" fill="#FFC97B"></path><path d="M317.429 202.262c-1.872-2.237-4.4-3.708-6.989-4.964-5.149-2.496-10.869-3.581-16.45-4.637-7.888-1.492-15.958-2.874-22.518-7.845-.255-.194-.501-.096-.648.1-.013.012-.021.027-.032.04-.004.008-.01.012-.014.019-.158.195-.201.474.033.698 4.807 4.595 11.234 6.87 17.56 8.472 6.393 1.618 12.918 2.726 19.037 5.266l.57.237c.037.015.239.108.241.107.313.152.623.309.935.463 1.145.568 2.261 1.156 3.309 1.894 1.257.884 2.421 1.967 3.229 3.283.883 1.44 1.19 3.054 1.157 4.727-.033 1.742-.356 3.474-.639 5.189-.293 1.776-.556 3.556-.829 5.335-.565 3.677-1.091 7.357-1.488 11.056-.874 8.143-1.112 16.45.352 24.542.109.601 1.116.469 1.071-.144-.569-7.68.057-15.381 1.135-22.99.536-3.787 1.186-7.558 1.848-11.325.621-3.536 1.442-7.101 1.732-10.683.264-3.249-.489-6.315-2.602-8.84Z" fill="#FFC97B"></path><path d="M313.839 256.823a5.91 5.91 0 0 1 .282-.126c.057-.023.055-.022-.009.002.028-.01.055-.021.083-.029l.126-.041c.204-.063.413-.108.624-.139.051-.007.103-.016.154-.019-.143.007.024 0 .052-.002.102-.006.206-.008.308-.006.103.003.206.008.308.018.051.005.103.01.153.017.03.004.059.007.088.013-.071-.013-.076-.014-.014-.002.15.028.282.035.422-.039a.55.55 0 0 0 .262-.317c.07-.255-.055-.628-.355-.684a4.761 4.761 0 0 0-2.999.391c-.257.126-.371.49-.224.738.155.263.464.36.739.225Z" fill="#E8AA52"></path><path d="M313.73 255.758c.093-.045.186-.086.281-.126.058-.023.056-.021-.008.002l.083-.029.126-.041a4.042 4.042 0 0 1 .778-.157c-.143.007.023 0 .052-.003a3.917 3.917 0 0 1 .616.013c.052.006.103.011.153.018l.088.013c-.071-.013-.077-.014-.014-.003.15.028.282.036.422-.038a.552.552 0 0 0 .262-.317c.069-.256-.055-.629-.355-.684a4.752 4.752 0 0 0-2.999.39c-.256.127-.371.492-.224.739a.557.557 0 0 0 .739.223Z" fill="#E8AA52"></path><path d="m307.415 218.852.445-3.546-38.353 6.586-48.282-25.233-1.035 5.963 48.353 24.342 38.872-8.112Z" fill="#012B66"></path><path d="m268.543 226.964-48.354-24.342-3.586 20.659c13.374 9.818 42.248 24.687 88.117 17.014l2.694-21.443-38.871 8.112Z" fill="#023985"></path><path d="M209.927 254.994c2.14 5.765-2.458 12.789-10.27 15.689-7.812 2.9-12.271-.757-15.396-6.053-4.571-7.746-.165-11.924 7.646-14.824 7.813-2.899 15.88-.577 18.02 5.188Z" fill="#FFEACC"></path><path d="M131.918 191.505s19.386 19.964 35.272 55.797c0 0 7.535 19.453 12.478 24.316 0 0-4.001-4.508 2.108-11.706 4.488-5.286 11.032-8.525 17.961-8.77 3.871-.137 7.915.672 10.217 3.927 0 0-25.855-30.457-42.747-56.737-6.75-10.499-9.945-19.174-11.347-25.806 0 0-1.273-1.497-3.81-2.75-9.326-4.606-20.313 1.594-21.94 11.868-.152.958-.247 1.98-.272 3.066 0 0-.134 4.553 2.08 6.795Z" fill="#fff"></path><path d="M179.668 271.619s8.486 10.238 27.703-2.047c0 0 11.894-7.935 5.956-21.757 0 0-12.334-9.195-22.061-20.851-9.726-11.655-21.756-27.524-31.738-48.513l-2.545-1.54s1.834 9.953 13.714 26.725c11.881 16.772 33.796 44.852 33.796 44.852l3.352 4.038c1.924 2.318 2.584 5.502 1.522 8.321-1.514 4.015-5.955 8.77-18.355 9.491l-7.744-12.023s-7.52 6.228-3.6 13.304Z" fill="#FFE0B3"></path><path d="M198.438 234.759s-22.272-23.224-37.885-59.986c0 0-2.816-4.475-4.607-6.541 0 0 13.572 41.952 42.492 66.527Z" fill="#fff"></path><path d="M157.476 228.019c4.686-8.451 14.811-14.041 24.449-13.557 3.431.172 3.421-4.094 0-4.266-11.431-.573-22.764 5.132-28.307 15.133 0 0 2.192 5.695 3.858 2.69Z" fill="#FFC97B"></path><path d="M122.972 243.554H79.261c-5.795 0-10.536-4.741-10.536-10.536v-22.764c0-5.795 4.741-10.536 10.536-10.536h43.711c5.795 0 10.536 4.741 10.536 10.536v22.764c0 5.795-4.741 10.536-10.536 10.536Z" fill="#023985"></path><path d="M94.164 221.637v-8.028l6.953 4.013 6.952 4.015-6.952 4.014-6.953 4.013v-8.027Z" fill="#B1D0FB"></path><path d="M88.46 146.874c0-13.385-10.85-24.234-24.233-24.234-13.384 0-24.234 10.849-24.234 24.234 0 9.7 5.701 18.065 13.934 21.936v7.729h20.6v-7.729c8.232-3.871 13.933-12.236 13.933-21.936Z" fill="#fff"></path><path d="M75.19 180.533H53.264c-1.099 0-1.997-.898-1.997-1.997 0-1.1.898-1.998 1.997-1.998h21.929c1.098 0 1.997.898 1.997 1.998a2.004 2.004 0 0 1-1.998 1.997ZM64.227 191.868a8.012 8.012 0 0 1-8.012-8.012v-1.324H72.24v1.324a8.013 8.013 0 0 1-8.013 8.012Z" fill="#FFC97B"></path><path d="M75.19 184.528H53.264c-1.099 0-1.997-.899-1.997-1.997 0-1.099.898-1.998 1.997-1.998h21.929c1.098 0 1.997.898 1.997 1.998a2.004 2.004 0 0 1-1.998 1.997Z" fill="#E8AA52"></path><path d="M66.43 176.539h-1.135v-33.666a1.07 1.07 0 0 0-1.068-1.068c-.59 0-1.07.48-1.07 1.068v33.666h-1.135v-33.666a2.205 2.205 0 0 1 4.408 0v33.666Z" fill="#FFC97B"></path><path d="m26.137 138.611-.665 3.468 10.129 1.942a28.87 28.87 0 0 1 .617-3.48l-10.081-1.93ZM34.16 122.64l-2.135 2.817 8.078 6.116a28.949 28.949 0 0 1 2.113-2.834l-8.056-6.099ZM48.321 111.852l-3.155 1.589 4.542 9.002a28.776 28.776 0 0 1 3.151-1.595l-4.538-8.996ZM102.982 142.079l-.665-3.468-10.083 1.93c.274 1.135.483 2.296.618 3.48l10.13-1.942ZM96.428 125.457l-2.136-2.817-8.056 6.099c.76.9 1.465 1.846 2.113 2.834l8.079-6.116ZM83.287 113.441l-3.155-1.589-4.539 8.997a28.606 28.606 0 0 1 3.152 1.596l4.542-9.004ZM66.032 118.578l-.087-10.249-3.534.033.088 10.21a29.066 29.066 0 0 1 1.727-.057c.608.002 1.21.026 1.806.063Z" fill="#0367F2"></path><path d="M422.191 331.959H319.778v20.192h102.413v-20.192Z" fill="#FFC97B"></path><path d="M329.667 331.959h-4.125v20.193h4.125v-20.193ZM335.859 331.96h-4.126v20.192h4.126V331.96ZM410.236 331.96h-4.125v20.192h4.125V331.96ZM416.426 331.96h-4.125v20.192h4.125V331.96Z" fill="#E8AA52"></path><path d="M432.045 320.708v-3.107c0-4.415-3.592-8.006-8.006-8.006h-91.277v19.12h91.277c4.414 0 8.006-3.592 8.006-8.007Z" fill="#fff"></path><path d="M424.038 306.23h-91.874v3.365h91.874c4.415 0 8.006 3.592 8.006 8.006v3.107c0 4.415-3.593 8.006-8.006 8.006h-91.874v3.364h91.874c6.27 0 11.37-5.1 11.37-11.37v-3.107c0-6.27-5.1-11.371-11.37-11.371Z" fill="#023985"></path><path d="M425.825 313.875h-93.064v1.53h93.064v-1.53ZM425.825 318.484h-93.064v1.53h93.064v-1.53ZM425.825 323.092h-93.064v1.53h93.064v-1.53Z" fill="#F4F9FF"></path><path d="M324.938 296.111v-2.797c0-3.976 3.233-7.21 7.209-7.21h82.189v17.216h-82.189a7.217 7.217 0 0 1-7.209-7.209Z" fill="#fff"></path><path d="M332.147 283.074h82.727v3.03h-82.727a7.218 7.218 0 0 0-7.21 7.21v2.797a7.218 7.218 0 0 0 7.21 7.21h82.727v3.029h-82.727c-5.646 0-10.239-4.593-10.239-10.239v-2.797c0-5.646 4.593-10.24 10.239-10.24Z" fill="#FFC97B"></path><path d="M330.537 291.336h83.799v-1.378h-83.799v1.378ZM330.537 295.485h83.799v-1.378h-83.799v1.378ZM330.537 299.635h83.799v-1.378h-83.799v1.378Z" fill="#F4F9FF"></path><path d="M159.799 68.385c3.869 0 7.005 3.04 7.005 6.79v1.033c1.409 3.964 2.266 9.123 2.266 14.78 0 5.656-.858 10.814-2.266 14.779v1.033c0 3.75-3.136 6.791-7.005 6.791-5.12 0-9.27-10.119-9.27-22.603-.001-12.484 4.15-22.603 9.27-22.603Z" fill="#FFC97B"></path><path d="M153.678 91.275c0 7.636.592 13.827 1.321 13.827.73 0 1.32-6.19 1.32-13.827 0-7.636-.591-13.827-1.32-13.827-.729.001-1.321 6.191-1.321 13.827Z" fill="#E8AA52"></path><path d="M176.611 80.745V101.806c-.477 5.21-5.27 10.04-11.695 11.785V68.961c6.425 1.744 11.218 6.574 11.695 11.784Z" fill="#0367F2"></path><path d="M164.916 116.01c1.047 0 1.902-.83 1.902-1.844V68.385c0-1.014-.857-1.845-1.902-1.845-1.046 0-1.901.83-1.901 1.845v45.781c-.001 1.014.855 1.844 1.901 1.844Z" fill="#023985"></path><path d="M123.413 68.385c-3.868 0-7.004 3.04-7.004 6.79v1.033c-1.409 3.964-2.266 9.123-2.266 14.78 0 5.656.858 10.814 2.266 14.779v1.033c0 3.75 3.136 6.791 7.004 6.791 5.121 0 9.271-10.119 9.271-22.603 0-12.484-4.15-22.603-9.271-22.603Z" fill="#FFC97B"></path><path d="M129.533 91.275c0 7.636-.591 13.827-1.32 13.827-.729 0-1.321-6.19-1.321-13.827 0-7.636.592-13.827 1.321-13.827.729.001 1.32 6.191 1.32 13.827Z" fill="#E8AA52"></path><path d="M106.601 80.745V101.806c.477 5.21 5.27 10.04 11.695 11.785V68.961c-6.425 1.744-11.218 6.574-11.695 11.784Z" fill="#0367F2"></path><path d="M118.297 116.01c-1.047 0-1.902-.83-1.902-1.844V68.385c0-1.014.855-1.845 1.902-1.845 1.046 0 1.901.83 1.901 1.845v45.781c0 1.014-.856 1.844-1.901 1.844Z" fill="#023985"></path><path d="M165.096 40.523c-3.8-3.137-8.783-5.122-13.509-6.282a42.206 42.206 0 0 0-14.882-.92 49.084 49.084 0 0 0-4.464.72c-1.009.212-2.118.378-3.054.822-.978.464-1.937.976-2.905 1.464l-7.859 3.962c-1.043.526-.92 2.051 0 2.608 2.422 1.469 5.196 1.657 7.938 1.22 1.929-.308 3.69-1.024 5.52-1.658 3.288-1.14 6.84-1.696 10.312-1.713 3.096-.014 6.236.45 9.096 1.673 4.231 1.823 9.293 3.035 13.501.478.764-.466 1.079-1.736.306-2.374Z" fill="#0367F2"></path><path d="m142.26 31.641.007-.033c-.222 0-.44.013-.661.016-.22-.003-.438-.016-.661-.016l.007.033c-21.815.696-39.29 18.587-39.29 40.57v24.637a4.955 4.955 0 0 0 4.955 4.955v-24.29l-.107-.631c-1.669-9.85.466-20.103 6.475-28.083 2.808-3.727 6.611-7.237 11.759-9.774l.183-.09c10.49-5.113 22.869-5.113 33.359 0l.183.09c5.18 2.552 8.997 6.09 11.808 9.84 5.975 7.974 8.091 18.2 6.425 28.023l-.106.627v24.289a4.955 4.955 0 0 0 4.955-4.954V72.212c-.001-21.984-17.476-39.876-39.291-40.57Z" fill="#023985"></path><path d="M441.806 119.947h-64.425v93.168h64.425v-93.168Z" fill="#B1D0FB"></path><path d="M434.851 133.612h-50.517v2.063h50.517v-2.063ZM434.851 143.078h-50.517v2.063h50.517v-2.063ZM434.851 152.545h-50.517v2.063h50.517v-2.063ZM434.851 162.011h-50.517v2.063h50.517v-2.063ZM434.851 171.478h-50.517v2.062h50.517v-2.062ZM434.851 180.945h-50.517v2.062h50.517v-2.062Z" fill="#0367F2"></path><path d="M434.852 203.94h-50.516v.568h50.516v-.568Z" fill="#fff"></path><path d="M391.237 194.993c2.581.434 5.201.564 7.81.337 2.41-.209 4.969-.615 7.217-1.542 1.6-.66 3.344-2.467 2.221-4.294-.989-1.61-3.471-1.774-5.116-1.383-1.917.457-3.623 1.712-4.789 3.28-1.168 1.569-1.98 3.831-.599 5.528 1.277 1.568 3.613 1.882 5.495 1.621a8.333 8.333 0 0 0 3.013-1.032 8.95 8.95 0 0 0 1.215-.865c.501-.415 1.027-.965 1.704-1.059.813-.114 1 .502 1.517.945.36.307.822.411 1.285.364.571-.058 1.091-.304 1.62-.508a5.17 5.17 0 0 1 2.038-.338c3.073.073 6.171.481 9.234.731.547.044.544-.467 0-.511-2.28-.186-4.562-.711-6.842-.896-1.041-.084-2.111-.244-3.156-.159-.983.081-1.772.591-2.712.793-1.057.225-1.203-.837-2.05-1.163-.751-.288-1.578-.045-2.221.384-.784.524-1.422 1.206-2.26 1.659a7.45 7.45 0 0 1-3.065.875c-1.728.105-4.3-.422-4.663-2.466-.333-1.864 1.214-3.789 2.562-4.89 1.384-1.13 3.252-1.878 5.056-1.548.859.158 1.979.561 2.19 1.524.245 1.125-.748 2.031-1.65 2.473-1.053.516-2.27.78-3.408 1.033a29.139 29.139 0 0 1-3.833.593c-2.529.219-5.079.342-7.583-.08-.539-.09-.771.503-.23.594Z" fill="#0367F2"></path><path d="m463.34 176.5-11.326-6.144 3.329-6.137a2.736 2.736 0 0 1 3.709-1.1l6.516 3.536a2.736 2.736 0 0 1 1.101 3.709l-3.329 6.136Z" fill="#B1D0FB"></path><path d="m462.54 177.926-11.325-6.145-32.712 60.286 11.325 6.146 32.712-60.287Z" fill="#023985"></path><path d="m458.894 175.954-4.044-2.194-32.712 60.286 4.044 2.195 32.712-60.287Z" fill="#023985"></path><path d="m465.356 175.948-14.021-7.608-1.471 2.71 14.021 7.608 1.471-2.71Z" fill="#FFC97B"></path><path d="m429.838 238.241-11.326-6.145-1.148 10.275 4.486 2.434 7.988-6.564Z" fill="#B1D0FB"></path><path d="m421.85 244.806-4.486-2.435-.754 6.74 5.24-4.305Z" fill="#023985"></path><path d="M58.31 71.815 69.9 83.403M70.133 71.815 58.544 83.403M448.173 245.637l11.588 11.589M459.994 245.637l-11.589 11.589" stroke="#0249AC" stroke-width="2.317" stroke-miterlimit="10"></path><path d="m25.611 205.025 10.263 10.262M36.08 205.025l-10.262 10.262" stroke="#023985" stroke-width="2.052" stroke-miterlimit="10"></path><path d="M20.174 119.947a8.388 8.388 0 1 1-16.777 0 8.388 8.388 0 0 1 16.777 0ZM348.402 113.489a8.387 8.387 0 1 0 0-16.774 8.387 8.387 0 0 0 0 16.774Z" fill="#0367F2" stroke="#0249AC" stroke-width="2.317" stroke-miterlimit="10"></path><path d="M386.666 93.406a2.132 2.132 0 1 1-4.264-.001 2.132 2.132 0 0 1 4.264.001ZM181.14 22.341a2.131 2.131 0 1 1-4.263 0 2.131 2.131 0 0 1 4.263 0Z" fill="#023985" stroke="#023985" stroke-width="2.052" stroke-miterlimit="10"></path><path d="M45.142 292.814v5.04c-6.773.381-12.17 5.996-12.17 12.862v4.289c0 7.035 5.665 12.763 12.67 12.886 2.544 13.801 14.63 24.261 29.168 24.261 16.386 0 29.669-13.283 29.669-29.669v-29.669H45.142Zm-8 22.19v-4.289c0-4.567 3.527-8.321 8-8.693v20.46c0 .408.014.812.03 1.216-4.487-.358-8.03-4.116-8.03-8.694Z" fill="#023985"></path><path d="M89.7 259.039c-3.775-1.947-8.734-1.029-11.768 1.943-.544-4.329-4.66-7.601-8.974-8.247-4.316-.645-8.694.867-12.48 3.037-3.714 2.127-7.18 5.077-8.737 9.064-1.556 3.986-.684 9.125 2.841 11.55 1.432.984 3.257 1.262 4.97.975.226 1.356.763 2.649 1.645 3.722 2.94 3.575 9.01 3.928 12.345.719 2.531 2.239 6.416 2.805 9.48 1.38a8.316 8.316 0 0 0 1.843-1.187c-.225 2.97-1.353 5.878-3.254 8.176 3.681-1.281 6.828-4.025 8.597-7.499 1.16-2.277 1.705-4.85 1.633-7.403 2.865-.551 5.494-2.648 6.427-5.453 1.342-4.032-.792-8.832-4.568-10.777Z" fill="#B1D0FB"></path><path d="M222.853 80.94h-.006a5.733 5.733 0 0 0-6.201 5.705 5.733 5.733 0 0 0 6.194 5.707c2.95-.243 5.258-2.75 5.258-5.707 0-2.956-2.304-5.462-5.245-5.704Z" fill="#023985"></path><path d="M242.918 86.646c0-.989-.385-1.919-1.086-2.62a3.68 3.68 0 0 0-2.619-1.084h-2.121l-.218-.717a15.067 15.067 0 0 0-1.121-2.706l-.353-.661 1.501-1.5a3.709 3.709 0 0 0 0-5.24c-.7-.7-1.63-1.086-2.62-1.086-.991 0-1.92.386-2.62 1.084l-1.501 1.501-.661-.353c-.86-.46-1.77-.837-2.705-1.12l-.716-.219v-2.12a3.717 3.717 0 0 0-2.967-3.632 3.77 3.77 0 0 0-.738-.073c-.989 0-1.92.385-2.619 1.085-.7.7-1.085 1.63-1.085 2.62v2.12l-.716.218c-.935.284-1.845.662-2.706 1.12l-.661.354-1.501-1.5a3.711 3.711 0 0 0-5.24 0 3.688 3.688 0 0 0-1.084 2.62c0 .99.386 1.92 1.085 2.62l1.501 1.5-.353.66c-.46.861-.837 1.772-1.122 2.707l-.218.716h-2.12a3.709 3.709 0 0 0-3.705 3.705c0 .99.386 1.92 1.085 2.62.7.7 1.631 1.085 2.62 1.085h2.12l.218.716c.285.934.662 1.845 1.122 2.705l.353.661-1.501 1.5a3.71 3.71 0 0 0 0 5.241c.7.698 1.63 1.084 2.621 1.084.99 0 1.92-.386 2.619-1.085l1.501-1.501.661.353c.861.46 1.771.837 2.706 1.122l.716.218v2.121a3.708 3.708 0 0 0 4.424 3.634l.114-.024a3.683 3.683 0 0 0 1.786-.991 3.685 3.685 0 0 0 1.085-2.619v-2.121l.716-.218a15.018 15.018 0 0 0 2.706-1.122l.66-.353 1.501 1.502a3.683 3.683 0 0 0 2.62 1.082c.991 0 1.922-.385 2.62-1.083a3.684 3.684 0 0 0 1.084-2.62c0-.99-.385-1.92-1.085-2.62l-1.501-1.5.353-.66c.46-.861.837-1.773 1.122-2.707l.218-.715h2.121a3.707 3.707 0 0 0 3.704-3.704Zm-12.881 7.09a10.402 10.402 0 0 1-7.665 3.351c-5.757 0-10.441-4.684-10.441-10.44 0-5.758 4.684-10.442 10.441-10.442.296 0 .592.013.879.038a10.387 10.387 0 0 1 6.787 3.314 10.411 10.411 0 0 1 2.776 7.09 10.412 10.412 0 0 1-2.777 7.089ZM381.392 247.956l-.002.003a3.74 3.74 0 0 0 2.021 5.115 3.741 3.741 0 0 0 4.928-2.435 3.756 3.756 0 0 0-2.242-4.541c-1.8-.693-3.868.123-4.705 1.858Z" fill="#023985"></path><path d="M389.573 237.07a2.403 2.403 0 0 0-1.85.047 2.398 2.398 0 0 0-1.275 1.341l-.498 1.292-.488-.035a9.761 9.761 0 0 0-1.911.048l-.485.061-.563-1.267a2.42 2.42 0 0 0-4.467.113 2.398 2.398 0 0 0 .047 1.85l.562 1.267-.37.319a9.862 9.862 0 0 0-1.317 1.385l-.301.386-1.293-.498a2.427 2.427 0 0 0-3.126 1.388 2.403 2.403 0 0 0 .047 1.85 2.395 2.395 0 0 0 1.341 1.275l1.292.498-.035.488c-.047.636-.03 1.28.048 1.911l.061.486-1.267.563a2.422 2.422 0 0 0-1.229 3.192 2.41 2.41 0 0 0 1.342 1.275 2.4 2.4 0 0 0 1.851-.047l1.267-.562.319.37c.416.482.882.925 1.386 1.317l.385.302-.498 1.292a2.422 2.422 0 0 0 1.389 3.126c.602.232 1.26.215 1.85-.047a2.403 2.403 0 0 0 1.276-1.341l.497-1.292.488.036c.636.046 1.28.029 1.912-.049l.484-.06.563 1.266a2.421 2.421 0 0 0 3.192 1.229 2.41 2.41 0 0 0 1.275-1.342 2.4 2.4 0 0 0-.047-1.851l-.562-1.266.37-.32a9.804 9.804 0 0 0 1.317-1.385l.302-.386 1.292.498a2.421 2.421 0 0 0 3.252-1.844l.012-.075c.064-.448 0-.904-.186-1.32a2.395 2.395 0 0 0-1.341-1.275l-1.292-.498.036-.488a9.92 9.92 0 0 0-.049-1.911l-.06-.486 1.266-.563a2.402 2.402 0 0 0 1.274-1.342 2.41 2.41 0 0 0-.045-1.851 2.41 2.41 0 0 0-1.342-1.275 2.4 2.4 0 0 0-1.851.047l-1.265.562-.32-.37a9.859 9.859 0 0 0-1.385-1.317l-.386-.302.498-1.292a2.42 2.42 0 0 0-1.389-3.123Zm1.299 9.511a6.795 6.795 0 0 1 .244 5.455c-1.35 3.507-5.302 5.263-8.809 3.912-3.507-1.35-5.263-5.302-3.912-8.809a6.78 6.78 0 0 1 3.839-3.883 6.794 6.794 0 0 1 4.971-.028 6.79 6.79 0 0 1 3.667 3.353Z" fill="#023985"></path></svg>